PathFileType	4	(X/Y/Z)	T1_P1_NoVision_NoMovement_3_0-639.trc
DataRate	CameraRate	NumFrames	NumMarkers	Units	OrigDataRate	OrigDataStartFrame	OrigNumFrames
60	60	6	27	m	60	479	639
Frame#	Time	RHip			RKnee			RAnkle			RBigToe			RSmallToe			RHeel			LHip			LKnee			LAnkle			LBigToe			LSmallToe			LHeel			Neck			Head			Nose			RShoulder			RElbow			RWrist			RThumb			RIndex			RPinky			LShoulder			LElbow			LWrist			LThumb			LIndex			LPinky		
		X1	Y1	Z1	X2	Y2	Z2	X3	Y3	Z3	X4	Y4	Z4	X5	Y5	Z5	X6	Y6	Z6	X7	Y7	Z7	X8	Y8	Z8	X9	Y9	Z9	X10	Y10	Z10	X11	Y11	Z11	X12	Y12	Z12	X13	Y13	Z13	X14	Y14	Z14	X15	Y15	Z15	X16	Y16	Z16	X17	Y17	Z17	X18	Y18	Z18	X19	Y19	Z19	X20	Y20	Z20	X21	Y21	Z21	X22	Y22	Z22	X23	Y23	Z23	X24	Y24	Z24	X25	Y25	Z25	X26	Y26	Z26	X27	Y27	Z27
480	8.0	-66.72124955110941	3789.167624984769	-546.0626340299314	282.61540980622175	3885.4714525206336	-554.614070813016	649.1032844844162	4190.840325364723	-602.4585832018942	696.28259215478	3939.503850047788	-479.98211710830964	718.7121143902897	4034.7780605487005	-598.5445871333447	685.222498895573	4210.418228477005	-575.1799966750739	-108.23932541005237	3899.9802387574023	-355.64307323380865	238.98652229678953	3999.6541074804472	-358.13418986085367	587.1209349731567	4198.592075498618	-384.50759383840557	680.0022907339438	4141.555376665381	-334.1775947875755	636.5043467005532	4148.639410812284	-297.6363587539888	622.8224777805146	4260.451002972103	-426.6397572339197	-661.3894699791097	3676.3835940975027	-485.6586457363038	-896.7885418279309	3520.9808543646213	-432.54521637996766	-735.9098879398854	3545.2605244235074	-401.16074702246965	-559.1220375946959	3652.335399645801	-638.4885415869253	-298.4036388590433	3776.1656445789	-712.671074901558	-39.71845043313408	3728.698086427343	-620.9426253541259	71.53931003640668	3791.6536652647906	-573.8012874895425	89.12280090479933	3798.229479312309	-577.1556764159477	84.78967326730987	3787.284686625119	-595.8880658354133	-606.4309923310736	3765.159665827669	-348.5120855384533	-388.1708288272479	3965.5444670027164	-327.90766690057893	-123.01418218525308	3952.009717193886	-302.26861479818274	11.098711497836646	3931.171955178925	-326.8434724282427	32.02748296627234	3947.5980301076306	-298.0224465924599	7.179912904162417	3997.1225694204554	-252.19138486792087
481	8.016666666666667	-66.6952178948757	3789.30238201197	-546.1574087995123	282.6783502295095	3886.595656247762	-555.2839092386662	650.0943022383176	4191.387240318064	-602.3031024781528	698.0695308422194	3941.7174308877597	-482.6558154813831	719.676382770315	4035.799845661217	-599.5139497141306	686.7159526852357	4211.0152666143495	-574.760713171107	-108.16491676556501	3900.107274337391	-355.78472603632633	240.13258783525828	4007.3182357684655	-359.6042986751903	588.560460027654	4199.377848211774	-384.3299217088553	680.9046337009439	4140.371306857657	-332.7818193014868	637.626447031454	4147.466264328427	-296.14167797598304	624.9241688872053	4259.642444536909	-425.1259752919721	-662.9909550423696	3675.8555475847343	-485.74171665754636	-896.708218670011	3520.885639740729	-432.51685940201605	-736.5095876047683	3545.0767833118057	-401.1741071876417	-559.0738331754494	3652.2743646891777	-639.0565026058922	-297.07026602487235	3777.1984864252463	-713.3210183177463	-39.69357786878393	3728.529209769319	-620.7752345512283	71.58808031257914	3791.8069825579764	-573.9014881483024	90.35584025316098	3798.2405794455667	-577.0481898206222	84.62505339850642	3787.706727447378	-594.3246656821591	-606.4601776685828	3765.1179928567026	-348.5170642644554	-389.38440121867905	3966.708939738362	-328.9605935996357	-121.70781621367955	3952.587460533755	-302.194480010896	11.631240812209114	3931.6100834295007	-327.0191097695663	33.18265015609344	3948.9254235738063	-299.9054050542952	7.653817294290065	4000.9761202870823	-256.6484954918177
482	8.033333333333333	-66.71060876764682	3789.452642883538	-546.2584712012242	282.1197844840693	3887.1765045472926	-555.9414671294835	652.41450939209	4192.8899328368425	-602.1951876354406	700.7714795273957	3946.654720109036	-488.03542823751	721.1258359677103	4036.758755143014	-600.2445110473723	687.46620777713	4209.819140933734	-572.157794525435	-108.1402850217302	3900.234854096032	-355.8695791380952	240.37386312501053	4011.0543223271316	-360.3461201584234	589.9848899496529	4200.068593598014	-384.1154852615855	681.4102337316202	4137.38229655447	-330.2311209204672	638.3166245630298	4144.508661131048	-293.4921266314373	627.4774205207872	4255.78768595017	-421.3701104230873	-663.3494467093798	3675.678573440062	-485.75155699659337	-896.7993931907365	3521.341791765567	-432.6145222680309	-736.4477289438092	3545.074555793229	-401.152941047264	-559.0084287020927	3652.2664583993824	-639.9862454968601	-295.8122296818808	3778.3237664064063	-714.0002465260045	-39.69620013911397	3728.622361563605	-620.1157803831597	71.63562761723557	3792.0861967381293	-574.0789611905402	91.93442595657426	3798.2866734188638	-576.9120734633609	84.5220378901614	3788.041082424599	-593.1225633700453	-606.4846554857127	3765.069620622083	-348.51562377435255	-390.70880587335256	3966.3006959956683	-328.962904583549	-121.04963795063135	3952.896777472952	-302.1847520655305	11.692104569916294	3931.722498391592	-327.0740231400877	34.32246083093201	3950.3287053926406	-302.10892228046566	7.9136333876144365	4003.2115222629673	-259.10208370549935
483	8.05	-66.75799681105917	3789.5622220180767	-546.3330965864943	280.4748553376369	3886.76754875807	-556.3261302947118	654.3285494600074	4194.178081057046	-602.1661249210022	702.7728597178793	3951.034884102406	-492.2702181951538	722.5388747509287	4037.2239863077098	-600.5218167295036	687.0681915542048	4206.870857613119	-568.8925536206542	-108.31828986213708	3900.2819245633013	-355.93217352815714	239.77552034584104	4011.727430526904	-360.5674750860141	590.1382498348978	4200.049550642606	-384.0374600068446	681.0508348092364	4135.112178958316	-328.7057387177384	637.8255318193872	4142.155404548069	-291.9095821294913	628.5921224170531	4249.460693733419	-416.5784401010049	-662.5336733377826	3675.870399262062	-485.6916589403977	-897.4669253479798	3524.15881621493	-433.29315184485927	-735.7461810691722	3545.234982542443	-401.0906959498092	-558.9738868175405	3652.274463967233	-640.4912954332913	-295.24222469138294	3779.1374643976715	-714.5368902143754	-39.767590083408074	3728.98998649682	-618.6688666005588	71.67420143618709	3792.279799144789	-574.1786493318177	93.13377101864795	3798.3220925139617	-576.7776356328004	84.50588899324515	3788.151279905128	-592.6138479191925	-606.5040179225673	3765.0213229342867	-348.50367277294174	-391.39393392318107	3967.850026219608	-330.16774357406473	-121.04479894526415	3952.962584980657	-302.2357709155618	11.54489862306992	3931.6792651874125	-327.0649677123348	35.418414886227225	3951.6344851488466	-303.6279735982953	7.713931704486365	4001.7359682827546	-257.3676637396428
484	8.066666666666666	-66.80673109357264	3789.599943568862	-546.3656323508557	278.5397599956376	3885.7215292978763	-556.288912281474	655.0609047605699	4194.1548236236795	-601.7400817799521	703.3128622325144	3952.0146198831244	-492.69403250672843	723.3321179077712	4036.9884461876914	-600.2801331108171	686.6440989509736	4204.800271116785	-567.6105924817567	-108.90737506867961	3900.1468063619923	-356.0100829425657	238.79560784343278	4011.5324196203255	-360.65237689467057	589.2401341076593	4199.524969232606	-384.1069291874559	680.096783302999	4134.123478945339	-328.4807437182353	636.7288620275484	4140.980098562442	-291.63780936251715	627.2551951048592	4244.10803989577	-413.48138235309733	-660.8632893853395	3676.3537473307683	-485.590435425031	-898.8322276341447	3529.9351210386603	-434.7307921575137	-734.4425742571939	3545.5620605436457	-400.99636189072703	-558.992449571135	3652.2468832733066	-640.0174391636104	-295.1822518162644	3779.0629256204315	-714.4528325619925	-39.89716217129957	3729.3705443430445	-616.7746940429095	71.66231192785922	3791.8237241815277	-573.7720473322212	93.6385957809053	3798.293229413653	-576.6430833017525	84.53748934541967	3788.072141205227	-592.5355403937397	-606.5125183009294	3764.986166868576	-348.48938786022137	-391.1921645500419	3972.74005739273	-333.46671651605044	-121.59608083764665	3952.864921767672	-302.3737640044435	11.55318417664149	3931.7040424950596	-327.0779608225271	36.2887239772694	3952.5698017742857	-304.2123996952266	7.325727124811282	3999.515196840908	-254.06714882671227
485	8.083333333333334	-66.8269095185089	3789.5609728361483	-546.3512370960547	278.07607266341574	3884.806306740694	-555.781717179924	655.1191569509479	4191.866812470772	-599.9542507835678	702.7097138937002	3949.2334244091367	-489.7782466041285	723.4195358792031	4035.9751276884613	-599.3997997297948	687.2243952946737	4204.678678321343	-568.4938625519901	-109.78024985478135	3899.8514618046347	-356.09519165202374	238.28133500020152	4011.3194252880794	-360.67079070336183	588.6391295968699	4199.237099024058	-384.18490236418864	679.5047023889105	4134.00670931989	-328.72234636649284	636.0846516953966	4140.33963488167	-291.80794267622724	625.005259372755	4243.48129912187	-414.038451770073	-659.3743763650044	3676.838037216981	-485.52664039944307	-900.1014136934997	3535.294806964453	-436.1104071877574	-733.2494260395764	3545.8971198985682	-400.93503827658134	-559.0360717646404	3652.224812696685	-639.0995736914903	-295.2116010917294	3776.8221050965144	-712.6236165891945	-39.99978841482142	3729.5115011711455	-615.251271519053	71.53724871696873	3790.0118560519027	-572.3015612592642	93.70644279270374	3798.201511642681	-576.4923781927714	84.5909199199772	3787.9104968337956	-592.5322030354677	-606.495649648307	3764.9845498759296	-348.4889441759297	-390.0386714601548	3978.1909096242975	-336.9356635600807	-122.54929899271558	3952.683790158781	-302.65914810228014	12.139983683258436	3932.0499856831802	-327.228969084622	36.60573240160553	3952.285921271495	-303.3301853173809	7.1001652949169	3999.599072388918	-252.48491865750273
